<?xml version="1.0" encoding="utf-8"?>
<?xml-stylesheet type="text/xsl" href="rss1.xsl"?>
<rss version="2.0" xmlns:atom="http://www.w3.org/2005/Atom" xmlns:content="http://purl.org/rss/1.0/modules/content/" xmlns:dc="http://purl.org/dc/elements/1.1/" xmlns:media="http://search.yahoo.com/mrss/">
<channel>
 <title>Getty</title>
 <link>http://www.gettyimg.com/</link>
 <atom:link href="http://www.gettyimg.com/" rel="self" type="application/rss+xml" />

 
                <item>
                <title><![CDATA[【Apple Music】WEB-RiP - Charli XCX - Von dutch [Apple HD Music Video]]]></title>
                <link><![CDATA[https://sharemania.us/threads/charli-xcx-von-dutch-apple-hd-music-video.242060/]]></link>
                <description><![CDATA[<article>
<blockquote class="messageText SelectQuoteContainer ugc baseHtml">
<span style="font-size: 22px"><b>Charli XCX - Von dutch [Apple HD Music Video]</b></span><br>
<br>
<img src="https://imgur.com/Xp17JYQ.jpg" class="bbCodeImage LbImage" alt="[​IMG]" data-url="https://imgur.com/Xp17JYQ.jpg" style=""><br>
<br>
<div class="bbCodeBlock bbCodeCode">
<div class="type">Code:</div>
<pre>General
Format                         : MPEG-4
Codec ID                       : M4V  (isom/iso4/M4V /mp42)
File size                      : 260 MiB
Duration                       : 3 min 35 s
Overall bit rate mode          : Variable
Overall bit rate               : 10.1 Mb/s
Movie name                     : Von dutch
Performer                      : Charli XCX
Genre                          : Dance
ContentType                    : Music Video
Recorded date                  : UTC 2024-02-29 08:00:00
Encoded date                   : UTC 2024-03-17 09:17:17
Tagged date                    : UTC 2024-03-17 09:17:17
Copyright                      : ℗ © 2024 Atlantic Recording Corporation
Cover                          : Yes
Rating                         : None
GenreID                        : 1617
AppleStoreCountry              : Canada
AlbumTitleID                   : 432942256
AppleStoreCatalogID            : 1733597297

Video
ID                             : 2
Format                         : AVC
Format/Info                    : Advanced Video Codec
Format profile                 : High@L4
Format settings                : CABAC / 4 Ref Frames
Format settings, CABAC         : Yes
Format settings, Reference fra : 4 frames
Codec ID                       : avc1
Codec ID/Info                  : Advanced Video Coding
Duration                       : 3 min 35 s
Bit rate                       : 9 853 kb/s
Maximum bit rate               : 20.1 Mb/s
Width                          : 1 920 pixels
Height                         : 1 080 pixels
Display aspect ratio           : 16:9
Frame rate mode                : Constant
Frame rate                     : 25.000 FPS
Color space                    : YUV
Chroma subsampling             : 4:2:0
Bit depth                      : 8 bits
Scan type                      : Progressive
Bits/(Pixel*Frame)             : 0.190
Stream size                    : 253 MiB (97%)
Title                          : Core Media Video
Encoded date                   : UTC 2024-03-01 00:25:16
Tagged date                    : UTC 2024-03-17 09:17:26
Color range                    : Limited
Color primaries                : BT.709
Transfer characteristics       : BT.709
Matrix coefficients            : BT.709
Codec configuration box        : avcC

Audio
ID                             : 1
Format                         : AAC LC
Format/Info                    : Advanced Audio Codec Low Complexity
Codec ID                       : mp4a-40-2
Duration                       : 3 min 35 s
Duration_LastFrame             : -15 ms
Bit rate mode                  : Variable
Bit rate                       : 265 kb/s
Maximum bit rate               : 355 kb/s
Channel(s)                     : 2 channels
Channel layout                 : L R
Sampling rate                  : 48.0 kHz
Frame rate                     : 46.875 FPS (1024 SPF)
Compression mode               : Lossy
Stream size                    : 6.73 MiB (3%)
Title                          : Core Media Audio
Encoded date                   : UTC 2024-03-01 00:17:19
Tagged date                    : UTC 2024-03-17 09:17:26
</pre>
</div>
<div class="bbCodeBlock bbCodeVfcHH HiddenContent">
<div class="attribution type">Hidden Content:</div>
<blockquote>You must reply before you can see the hidden data contained here.</blockquote>
</div>
<div class="messageTextEndMarker">&nbsp;</div>
</blockquote>
</article>]]></description>
                <author><![CDATA[abby0511]]></author>
                </item>

                </channel></rss>